<?xml version="1.0" encoding="us-ascii" standalone="no"?><svg xmlns="http://www.w3.org/2000/svg" xmlns:xlink="http://www.w3.org/1999/xlink" contentStyleType="text/css" height="2505px" preserveAspectRatio="none" style="width:1166px;height:2505px;background:#FFFFFF;" version="1.1" viewBox="0 0 1166 2505" width="1166px" zoomAndPan="magnify"><defs/><g><text fill="#000000" font-family="sans-serif" font-size="14" font-weight="bold" lengthAdjust="spacing" textLength="295" x="431.75" y="29.5332">Diagrama de Secuencia: Registrar Compra</text><rect fill="#FFFFFF" height="433.6641" style="stroke:#181818;stroke-width:1.0;" width="10" x="71.5" y="131.2188"/><rect fill="#FFFFFF" height="371.9609" style="stroke:#181818;stroke-width:1.0;" width="10" x="71.5" y="1207.6563"/><rect fill="#FFFFFF" height="311.2578" style="stroke:#181818;stroke-width:1.0;" width="10" x="71.5" y="1800.0781"/><rect fill="#FFFFFF" height="116.4063" style="stroke:#181818;stroke-width:1.0;" width="10" x="411.5" y="223.2734"/><rect fill="#FFFFFF" height="194.8516" style="stroke:#181818;stroke-width:1.0;" width="10" x="411.5" y="370.0313"/><rect fill="#FFFFFF" height="311.2578" style="stroke:#181818;stroke-width:1.0;" width="10" x="411.5" y="638.5859"/><rect fill="#FFFFFF" height="91.0547" style="stroke:#181818;stroke-width:1.0;" width="10" x="411.5" y="1016.5469"/><rect fill="#FFFFFF" height="341.6094" style="stroke:#181818;stroke-width:1.0;" width="10" x="411.5" y="1238.0078"/><rect fill="#FFFFFF" height="91.0547" style="stroke:#181818;stroke-width:1.0;" width="10" x="411.5" y="1653.3203"/><rect fill="#FFFFFF" height="311.2578" style="stroke:#181818;stroke-width:1.0;" width="10" x="411.5" y="1800.0781"/><rect fill="#FFFFFF" height="91.0547" style="stroke:#181818;stroke-width:1.0;" width="10" x="411.5" y="2210.3906"/><rect fill="#FFFFFF" height="30.3516" style="stroke:#181818;stroke-width:1.0;" width="10" x="604.5" y="253.625"/><rect fill="#FFFFFF" height="30.3516" style="stroke:#181818;stroke-width:1.0;" width="10" x="604.5" y="668.9375"/><rect fill="#FFFFFF" height="30.3516" style="stroke:#181818;stroke-width:1.0;" width="10" x="604.5" y="1046.8984"/><rect fill="#FFFFFF" height="30.3516" style="stroke:#181818;stroke-width:1.0;" width="10" x="604.5" y="1238.0078"/><rect fill="#FFFFFF" height="30.3516" style="stroke:#181818;stroke-width:1.0;" width="10" x="604.5" y="1683.6719"/><rect fill="#FFFFFF" height="30.3516" style="stroke:#181818;stroke-width:1.0;" width="10" x="604.5" y="1830.4297"/><rect fill="#FFFFFF" height="30.3516" style="stroke:#181818;stroke-width:1.0;" width="10" x="604.5" y="2240.7422"/><rect fill="#FFFFFF" height="30.3516" style="stroke:#181818;stroke-width:1.0;" width="10" x="713.5" y="442.9922"/><rect fill="#FFFFFF" height="30.3516" style="stroke:#181818;stroke-width:1.0;" width="10" x="713.5" y="797.6016"/><rect fill="#FFFFFF" height="91.0547" style="stroke:#181818;stroke-width:1.0;" width="10" x="713.5" y="1366.6719"/><rect fill="#FFFFFF" height="30.3516" style="stroke:#181818;stroke-width:1.0;" width="10" x="713.5" y="1959.0938"/><rect fill="#FFFFFF" height="93.3125" style="stroke:#181818;stroke-width:1.0;" width="10" x="804.5" y="410.3828"/><rect fill="#FFFFFF" height="123.6641" style="stroke:#181818;stroke-width:1.0;" width="10" x="878" y="764.9922"/><rect fill="#FFFFFF" height="184.3672" style="stroke:#181818;stroke-width:1.0;" width="10" x="947" y="1334.0625"/><rect fill="#FFFFFF" height="123.6641" style="stroke:#181818;stroke-width:1.0;" width="10" x="1058.5" y="1926.4844"/><rect fill="none" height="382.3125" style="stroke:#000000;stroke-width:1.5;" width="859.5" x="10" y="182.5703"/><rect fill="none" height="258.9063" style="stroke:#000000;stroke-width:1.5;" width="839.5" x="20" y="298.9766"/><rect fill="none" height="228.5547" style="stroke:#000000;stroke-width:1.5;" width="896.5" x="20" y="714.2891"/><rect fill="none" height="412.6641" style="stroke:#000000;stroke-width:1.5;" width="997.5" x="10" y="1166.9531"/><rect fill="none" height="289.2578" style="stroke:#000000;stroke-width:1.5;" width="977.5" x="20" y="1283.3594"/><rect fill="none" height="351.9609" style="stroke:#000000;stroke-width:1.5;" width="1139.5" x="10" y="1759.375"/><rect fill="none" height="228.5547" style="stroke:#000000;stroke-width:1.5;" width="1119.5" x="20" y="1875.7813"/><rect fill="none" height="139.7578" style="stroke:#000000;stroke-width:1.5;" width="635" x="20" y="2169.6875"/><line style="stroke:#181818;stroke-width:0.5;stroke-dasharray:5.0,5.0;" x1="76" x2="76" y1="121.2188" y2="2423.5"/><line style="stroke:#181818;stroke-width:0.5;stroke-dasharray:5.0,5.0;" x1="416.5" x2="416.5" y1="121.2188" y2="2423.5"/><line style="stroke:#181818;stroke-width:0.5;stroke-dasharray:5.0,5.0;" x1="609" x2="609" y1="121.2188" y2="2423.5"/><line style="stroke:#181818;stroke-width:0.5;stroke-dasharray:5.0,5.0;" x1="718.5" x2="718.5" y1="121.2188" y2="2423.5"/><line style="stroke:#181818;stroke-width:0.5;stroke-dasharray:5.0,5.0;" x1="809.5" x2="809.5" y1="409.3359" y2="2423.5"/><line style="stroke:#181818;stroke-width:0.5;stroke-dasharray:5.0,5.0;" x1="882.5" x2="882.5" y1="763.9453" y2="2423.5"/><line style="stroke:#181818;stroke-width:0.5;stroke-dasharray:5.0,5.0;" x1="951.5" x2="951.5" y1="1333.0156" y2="2423.5"/><line style="stroke:#181818;stroke-width:0.5;stroke-dasharray:5.0,5.0;" x1="1063.5" x2="1063.5" y1="1925.4375" y2="2423.5"/><text fill="#000000" font-family="sans-serif" font-size="14" lengthAdjust="spacing" textLength="87" x="30" y="118.1426">Administrador</text><ellipse cx="76.5" cy="52.1094" fill="#E2E2F0" rx="8" ry="8" style="stroke:#181818;stroke-width:0.5;"/><path d="M76.5,60.1094 L76.5,87.1094 M63.5,68.1094 L89.5,68.1094 M76.5,87.1094 L63.5,102.1094 M76.5,87.1094 L89.5,102.1094 " fill="none" style="stroke:#181818;stroke-width:0.5;"/><text fill="#000000" font-family="sans-serif" font-size="14" lengthAdjust="spacing" textLength="87" x="30" y="2437.0332">Administrador</text><ellipse cx="76.5" cy="2448.6094" fill="#E2E2F0" rx="8" ry="8" style="stroke:#181818;stroke-width:0.5;"/><path d="M76.5,2456.6094 L76.5,2483.6094 M63.5,2464.6094 L89.5,2464.6094 M76.5,2483.6094 L63.5,2498.6094 M76.5,2483.6094 L89.5,2498.6094 " fill="none" style="stroke:#181818;stroke-width:0.5;"/><rect fill="#E2E2F0" height="31.6094" rx="2.5" ry="2.5" style="stroke:#181818;stroke-width:0.5;" width="64" x="384.5" y="88.6094"/><text fill="#000000" font-family="sans-serif" font-size="14" lengthAdjust="spacing" textLength="50" x="391.5" y="110.1426">Sistema</text><rect fill="#E2E2F0" height="31.6094" rx="2.5" ry="2.5" style="stroke:#181818;stroke-width:0.5;" width="64" x="384.5" y="2422.5"/><text fill="#000000" font-family="sans-serif" font-size="14" lengthAdjust="spacing" textLength="50" x="391.5" y="2444.0332">Sistema</text><rect fill="#E2E2F0" height="31.6094" rx="2.5" ry="2.5" style="stroke:#181818;stroke-width:0.5;" width="71" x="574" y="88.6094"/><text fill="#000000" font-family="sans-serif" font-size="14" lengthAdjust="spacing" textLength="57" x="581" y="110.1426">Cat&#225;logo</text><rect fill="#E2E2F0" height="31.6094" rx="2.5" ry="2.5" style="stroke:#181818;stroke-width:0.5;" width="71" x="574" y="2422.5"/><text fill="#000000" font-family="sans-serif" font-size="14" lengthAdjust="spacing" textLength="57" x="581" y="2444.0332">Cat&#225;logo</text><rect fill="#E2E2F0" height="31.6094" rx="2.5" ry="2.5" style="stroke:#181818;stroke-width:0.5;" width="82" x="677.5" y="88.6094"/><text fill="#000000" font-family="sans-serif" font-size="14" lengthAdjust="spacing" textLength="68" x="684.5" y="110.1426">Multiobjeto</text><rect fill="#E2E2F0" height="31.6094" rx="2.5" ry="2.5" style="stroke:#181818;stroke-width:0.5;" width="82" x="677.5" y="2422.5"/><text fill="#000000" font-family="sans-serif" font-size="14" lengthAdjust="spacing" textLength="68" x="684.5" y="2444.0332">Multiobjeto</text><rect fill="#E2E2F0" height="31.6094" rx="2.5" ry="2.5" style="stroke:#181818;stroke-width:0.5;" width="80" x="769.5" y="2422.5"/><text fill="#000000" font-family="sans-serif" font-size="14" lengthAdjust="spacing" textLength="66" x="776.5" y="2444.0332">Proveedor</text><rect fill="#E2E2F0" height="31.6094" rx="2.5" ry="2.5" style="stroke:#181818;stroke-width:0.5;" width="47" x="859.5" y="2422.5"/><text fill="#000000" font-family="sans-serif" font-size="14" lengthAdjust="spacing" textLength="33" x="866.5" y="2444.0332">Pago</text><rect fill="#E2E2F0" height="31.6094" rx="2.5" ry="2.5" style="stroke:#181818;stroke-width:0.5;" width="71" x="916.5" y="2422.5"/><text fill="#000000" font-family="sans-serif" font-size="14" lengthAdjust="spacing" textLength="57" x="923.5" y="2444.0332">Producto</text><rect fill="#E2E2F0" height="31.6094" rx="2.5" ry="2.5" style="stroke:#181818;stroke-width:0.5;" width="132" x="997.5" y="2422.5"/><text fill="#000000" font-family="sans-serif" font-size="14" lengthAdjust="spacing" textLength="118" x="1004.5" y="2444.0332">CompraModificada</text><rect fill="#FFFFFF" height="433.6641" style="stroke:#181818;stroke-width:1.0;" width="10" x="71.5" y="131.2188"/><rect fill="#FFFFFF" height="371.9609" style="stroke:#181818;stroke-width:1.0;" width="10" x="71.5" y="1207.6563"/><rect fill="#FFFFFF" height="311.2578" style="stroke:#181818;stroke-width:1.0;" width="10" x="71.5" y="1800.0781"/><rect fill="#FFFFFF" height="116.4063" style="stroke:#181818;stroke-width:1.0;" width="10" x="411.5" y="223.2734"/><rect fill="#FFFFFF" height="194.8516" style="stroke:#181818;stroke-width:1.0;" width="10" x="411.5" y="370.0313"/><rect fill="#FFFFFF" height="311.2578" style="stroke:#181818;stroke-width:1.0;" width="10" x="411.5" y="638.5859"/><rect fill="#FFFFFF" height="91.0547" style="stroke:#181818;stroke-width:1.0;" width="10" x="411.5" y="1016.5469"/><rect fill="#FFFFFF" height="341.6094" style="stroke:#181818;stroke-width:1.0;" width="10" x="411.5" y="1238.0078"/><rect fill="#FFFFFF" height="91.0547" style="stroke:#181818;stroke-width:1.0;" width="10" x="411.5" y="1653.3203"/><rect fill="#FFFFFF" height="311.2578" style="stroke:#181818;stroke-width:1.0;" width="10" x="411.5" y="1800.0781"/><rect fill="#FFFFFF" height="91.0547" style="stroke:#181818;stroke-width:1.0;" width="10" x="411.5" y="2210.3906"/><rect fill="#FFFFFF" height="30.3516" style="stroke:#181818;stroke-width:1.0;" width="10" x="604.5" y="253.625"/><rect fill="#FFFFFF" height="30.3516" style="stroke:#181818;stroke-width:1.0;" width="10" x="604.5" y="668.9375"/><rect fill="#FFFFFF" height="30.3516" style="stroke:#181818;stroke-width:1.0;" width="10" x="604.5" y="1046.8984"/><rect fill="#FFFFFF" height="30.3516" style="stroke:#181818;stroke-width:1.0;" width="10" x="604.5" y="1238.0078"/><rect fill="#FFFFFF" height="30.3516" style="stroke:#181818;stroke-width:1.0;" width="10" x="604.5" y="1683.6719"/><rect fill="#FFFFFF" height="30.3516" style="stroke:#181818;stroke-width:1.0;" width="10" x="604.5" y="1830.4297"/><rect fill="#FFFFFF" height="30.3516" style="stroke:#181818;stroke-width:1.0;" width="10" x="604.5" y="2240.7422"/><rect fill="#FFFFFF" height="30.3516" style="stroke:#181818;stroke-width:1.0;" width="10" x="713.5" y="442.9922"/><rect fill="#FFFFFF" height="30.3516" style="stroke:#181818;stroke-width:1.0;" width="10" x="713.5" y="797.6016"/><rect fill="#FFFFFF" height="91.0547" style="stroke:#181818;stroke-width:1.0;" width="10" x="713.5" y="1366.6719"/><rect fill="#FFFFFF" height="30.3516" style="stroke:#181818;stroke-width:1.0;" width="10" x="713.5" y="1959.0938"/><rect fill="#FFFFFF" height="93.3125" style="stroke:#181818;stroke-width:1.0;" width="10" x="804.5" y="410.3828"/><rect fill="#FFFFFF" height="123.6641" style="stroke:#181818;stroke-width:1.0;" width="10" x="878" y="764.9922"/><rect fill="#FFFFFF" height="184.3672" style="stroke:#181818;stroke-width:1.0;" width="10" x="947" y="1334.0625"/><rect fill="#FFFFFF" height="123.6641" style="stroke:#181818;stroke-width:1.0;" width="10" x="1058.5" y="1926.4844"/><rect fill="#EEEEEE" height="3" style="stroke:#EEEEEE;stroke-width:1.0;" width="1159.5" x="0" y="152.3945"/><line style="stroke:#000000;stroke-width:1.0;" x1="0" x2="1159.5" y1="152.3945" y2="152.3945"/><line style="stroke:#000000;stroke-width:1.0;" x1="0" x2="1159.5" y1="155.3945" y2="155.3945"/><rect fill="#EEEEEE" height="24.3516" style="stroke:#000000;stroke-width:2.0;" width="160" x="499.75" y="141.2188"/><text fill="#000000" font-family="sans-serif" font-size="13" font-weight="bold" lengthAdjust="spacing" textLength="142" x="505.75" y="158.7139">Registro de Proveedor</text><path d="M10,182.5703 L83,182.5703 L83,190.9219 L73,200.9219 L10,200.9219 L10,182.5703 " fill="#EEEEEE" style="stroke:#000000;stroke-width:1.5;"/><rect fill="none" height="382.3125" style="stroke:#000000;stroke-width:1.5;" width="859.5" x="10" y="182.5703"/><text fill="#000000" font-family="sans-serif" font-size="13" font-weight="bold" lengthAdjust="spacing" textLength="28" x="25" y="197.0654">loop</text><text fill="#000000" font-family="sans-serif" font-size="11" font-weight="bold" lengthAdjust="spacing" textLength="129" x="98" y="195.9893">[hasta datos correctos]</text><polygon fill="#181818" points="399.5,219.2734,409.5,223.2734,399.5,227.2734,403.5,223.2734" style="stroke:#181818;stroke-width:1.0;"/><line style="stroke:#181818;stroke-width:1.0;" x1="81.5" x2="405.5" y1="223.2734" y2="223.2734"/><text fill="#000000" font-family="sans-serif" font-size="13" lengthAdjust="spacing" textLength="241" x="88.5" y="218.417">Ingresar_datos_proveedor(CUIT, contacto)</text><polygon fill="#181818" points="592.5,249.625,602.5,253.625,592.5,257.625,596.5,253.625" style="stroke:#181818;stroke-width:1.0;"/><line style="stroke:#181818;stroke-width:1.0;" x1="421.5" x2="598.5" y1="253.625" y2="253.625"/><text fill="#000000" font-family="sans-serif" font-size="13" lengthAdjust="spacing" textLength="139" x="428.5" y="248.7686">Buscar_proveedor(CUIT)</text><polygon fill="#181818" points="432.5,279.9766,422.5,283.9766,432.5,287.9766,428.5,283.9766" style="stroke:#181818;stroke-width:1.0;"/><line style="stroke:#181818;stroke-width:1.0;stroke-dasharray:2.0,2.0;" x1="426.5" x2="608.5" y1="283.9766" y2="283.9766"/><text fill="#000000" font-family="sans-serif" font-size="13" lengthAdjust="spacing" textLength="159" x="438.5" y="279.1201">Proveedor_encontrado | null</text><path d="M20,298.9766 L81,298.9766 L81,307.3281 L71,317.3281 L20,317.3281 L20,298.9766 " fill="#EEEEEE" style="stroke:#000000;stroke-width:1.5;"/><rect fill="none" height="258.9063" style="stroke:#000000;stroke-width:1.5;" width="839.5" x="20" y="298.9766"/><text fill="#000000" font-family="sans-serif" font-size="13" font-weight="bold" lengthAdjust="spacing" textLength="16" x="35" y="313.4717">alt</text><text fill="#000000" font-family="sans-serif" font-size="11" font-weight="bold" lengthAdjust="spacing" textLength="149" x="96" y="312.3955">[Proveedor no encontrado]</text><polygon fill="#181818" points="92.5,335.6797,82.5,339.6797,92.5,343.6797,88.5,339.6797" style="stroke:#181818;stroke-width:1.0;"/><line style="stroke:#181818;stroke-width:1.0;stroke-dasharray:2.0,2.0;" x1="86.5" x2="415.5" y1="339.6797" y2="339.6797"/><text fill="#000000" font-family="sans-serif" font-size="13" lengthAdjust="spacing" textLength="254" x="98.5" y="334.8232">Mostrar_mensaje("Proveedor no registrado")</text><polygon fill="#181818" points="399.5,366.0313,409.5,370.0313,399.5,374.0313,403.5,370.0313" style="stroke:#181818;stroke-width:1.0;"/><line style="stroke:#181818;stroke-width:1.0;" x1="81.5" x2="405.5" y1="370.0313" y2="370.0313"/><text fill="#000000" font-family="sans-serif" font-size="13" lengthAdjust="spacing" textLength="147" x="88.5" y="365.1748">Agregar_proveedor(datos)</text><polygon fill="#181818" points="757.5,396.3828,767.5,400.3828,757.5,404.3828,761.5,400.3828" style="stroke:#181818;stroke-width:1.0;"/><line style="stroke:#181818;stroke-width:1.0;" x1="421.5" x2="763.5" y1="400.3828" y2="400.3828"/><text fill="#000000" font-family="sans-serif" font-size="13" lengthAdjust="spacing" textLength="71" x="428.5" y="395.5264">Crear(datos)</text><rect fill="#E2E2F0" height="31.6094" rx="2.5" ry="2.5" style="stroke:#181818;stroke-width:0.5;" width="80" x="769.5" y="378.0313"/><text fill="#000000" font-family="sans-serif" font-size="14" lengthAdjust="spacing" textLength="66" x="776.5" y="399.5645">Proveedor</text><polygon fill="#181818" points="701.5,438.9922,711.5,442.9922,701.5,446.9922,705.5,442.9922" style="stroke:#181818;stroke-width:1.0;"/><line style="stroke:#181818;stroke-width:1.0;" x1="421.5" x2="707.5" y1="442.9922" y2="442.9922"/><text fill="#000000" font-family="sans-serif" font-size="13" lengthAdjust="spacing" textLength="173" x="428.5" y="438.1357">Guardar_proveedor(Proveedor)</text><polygon fill="#181818" points="432.5,469.3438,422.5,473.3438,432.5,477.3438,428.5,473.3438" style="stroke:#181818;stroke-width:1.0;"/><line style="stroke:#181818;stroke-width:1.0;stroke-dasharray:2.0,2.0;" x1="426.5" x2="717.5" y1="473.3438" y2="473.3438"/><text fill="#000000" font-family="sans-serif" font-size="13" lengthAdjust="spacing" textLength="123" x="438.5" y="468.4873">Confirmar_guardado()</text><polygon fill="#181818" points="797.5,499.6953,807.5,503.6953,797.5,507.6953,801.5,503.6953" style="stroke:#181818;stroke-width:1.0;"/><line style="stroke:#181818;stroke-width:1.0;" x1="421.5" x2="803.5" y1="503.6953" y2="503.6953"/><text fill="#000000" font-family="sans-serif" font-size="13" lengthAdjust="spacing" textLength="45" x="428.5" y="498.8389">Destruir</text><line style="stroke:#A80036;stroke-width:2.0;" x1="800.5" x2="818.5" y1="494.6953" y2="512.6953"/><line style="stroke:#A80036;stroke-width:2.0;" x1="800.5" x2="818.5" y1="512.6953" y2="494.6953"/><line style="stroke:#000000;stroke-width:1.0;stroke-dasharray:2.0,2.0;" x1="20" x2="859.5" y1="512.6953" y2="512.6953"/><text fill="#000000" font-family="sans-serif" font-size="11" font-weight="bold" lengthAdjust="spacing" textLength="132" x="25" y="524.1143">[Proveedor encontrado]</text><polygon fill="#181818" points="92.5,545.8828,82.5,549.8828,92.5,553.8828,88.5,549.8828" style="stroke:#181818;stroke-width:1.0;"/><line style="stroke:#181818;stroke-width:1.0;stroke-dasharray:2.0,2.0;" x1="86.5" x2="410.5" y1="549.8828" y2="549.8828"/><text fill="#000000" font-family="sans-serif" font-size="13" lengthAdjust="spacing" textLength="153" x="98.5" y="545.0264">Mostrar_datos_proveedor()</text><rect fill="#EEEEEE" height="3" style="stroke:#EEEEEE;stroke-width:1.0;" width="1159.5" x="0" y="593.0586"/><line style="stroke:#000000;stroke-width:1.0;" x1="0" x2="1159.5" y1="593.0586" y2="593.0586"/><line style="stroke:#000000;stroke-width:1.0;" x1="0" x2="1159.5" y1="596.0586" y2="596.0586"/><rect fill="#EEEEEE" height="24.3516" style="stroke:#000000;stroke-width:2.0;" width="192" x="483.75" y="581.8828"/><text fill="#000000" font-family="sans-serif" font-size="13" font-weight="bold" lengthAdjust="spacing" textLength="174" x="489.75" y="599.3779">Registro de Forma de Pago</text><polygon fill="#181818" points="399.5,634.5859,409.5,638.5859,399.5,642.5859,403.5,638.5859" style="stroke:#181818;stroke-width:1.0;"/><line style="stroke:#181818;stroke-width:1.0;" x1="76.5" x2="405.5" y1="638.5859" y2="638.5859"/><text fill="#000000" font-family="sans-serif" font-size="13" lengthAdjust="spacing" textLength="171" x="83.5" y="633.7295">Seleccionar_forma_de_pago()</text><polygon fill="#181818" points="592.5,664.9375,602.5,668.9375,592.5,672.9375,596.5,668.9375" style="stroke:#181818;stroke-width:1.0;"/><line style="stroke:#181818;stroke-width:1.0;" x1="421.5" x2="598.5" y1="668.9375" y2="668.9375"/><text fill="#000000" font-family="sans-serif" font-size="13" lengthAdjust="spacing" textLength="122" x="428.5" y="664.0811">Validar_forma_pago()</text><polygon fill="#181818" points="432.5,695.2891,422.5,699.2891,432.5,703.2891,428.5,699.2891" style="stroke:#181818;stroke-width:1.0;"/><line style="stroke:#181818;stroke-width:1.0;stroke-dasharray:2.0,2.0;" x1="426.5" x2="608.5" y1="699.2891" y2="699.2891"/><text fill="#000000" font-family="sans-serif" font-size="13" lengthAdjust="spacing" textLength="121" x="438.5" y="694.4326">Resultado_validaci&#243;n</text><path d="M20,714.2891 L81,714.2891 L81,722.6406 L71,732.6406 L20,732.6406 L20,714.2891 " fill="#EEEEEE" style="stroke:#000000;stroke-width:1.5;"/><rect fill="none" height="228.5547" style="stroke:#000000;stroke-width:1.5;" width="896.5" x="20" y="714.2891"/><text fill="#000000" font-family="sans-serif" font-size="13" font-weight="bold" lengthAdjust="spacing" textLength="16" x="35" y="728.7842">alt</text><text fill="#000000" font-family="sans-serif" font-size="11" font-weight="bold" lengthAdjust="spacing" textLength="124" x="96" y="727.708">[Forma de pago v&#225;lida]</text><polygon fill="#181818" points="847.5,750.9922,857.5,754.9922,847.5,758.9922,851.5,754.9922" style="stroke:#181818;stroke-width:1.0;"/><line style="stroke:#181818;stroke-width:1.0;" x1="421.5" x2="853.5" y1="754.9922" y2="754.9922"/><text fill="#000000" font-family="sans-serif" font-size="13" lengthAdjust="spacing" textLength="99" x="428.5" y="750.1357">Crear(formapago)</text><rect fill="#E2E2F0" height="31.6094" rx="2.5" ry="2.5" style="stroke:#181818;stroke-width:0.5;" width="47" x="859.5" y="732.6406"/><text fill="#000000" font-family="sans-serif" font-size="14" lengthAdjust="spacing" textLength="33" x="866.5" y="754.1738">Pago</text><polygon fill="#181818" points="701.5,793.6016,711.5,797.6016,701.5,801.6016,705.5,797.6016" style="stroke:#181818;stroke-width:1.0;"/><line style="stroke:#181818;stroke-width:1.0;" x1="421.5" x2="707.5" y1="797.6016" y2="797.6016"/><text fill="#000000" font-family="sans-serif" font-size="13" lengthAdjust="spacing" textLength="158" x="428.5" y="792.7451">Guardar_forma_pago(Pago)</text><polygon fill="#181818" points="432.5,823.9531,422.5,827.9531,432.5,831.9531,428.5,827.9531" style="stroke:#181818;stroke-width:1.0;"/><line style="stroke:#181818;stroke-width:1.0;stroke-dasharray:2.0,2.0;" x1="426.5" x2="717.5" y1="827.9531" y2="827.9531"/><text fill="#000000" font-family="sans-serif" font-size="13" lengthAdjust="spacing" textLength="123" x="438.5" y="823.0967">Confirmar_guardado()</text><polygon fill="#181818" points="87.5,854.3047,77.5,858.3047,87.5,862.3047,83.5,858.3047" style="stroke:#181818;stroke-width:1.0;"/><line style="stroke:#181818;stroke-width:1.0;stroke-dasharray:2.0,2.0;" x1="81.5" x2="410.5" y1="858.3047" y2="858.3047"/><text fill="#000000" font-family="sans-serif" font-size="13" lengthAdjust="spacing" textLength="290" x="93.5" y="853.4482">Mostrar_confirmacion("Forma de pago registrada")</text><polygon fill="#181818" points="871,884.6563,881,888.6563,871,892.6563,875,888.6563" style="stroke:#181818;stroke-width:1.0;"/><line style="stroke:#181818;stroke-width:1.0;" x1="421.5" x2="877" y1="888.6563" y2="888.6563"/><text fill="#000000" font-family="sans-serif" font-size="13" lengthAdjust="spacing" textLength="45" x="428.5" y="883.7998">Destruir</text><line style="stroke:#A80036;stroke-width:2.0;" x1="874" x2="892" y1="879.6563" y2="897.6563"/><line style="stroke:#A80036;stroke-width:2.0;" x1="874" x2="892" y1="897.6563" y2="879.6563"/><line style="stroke:#000000;stroke-width:1.0;stroke-dasharray:2.0,2.0;" x1="20" x2="916.5" y1="897.6563" y2="897.6563"/><text fill="#000000" font-family="sans-serif" font-size="11" font-weight="bold" lengthAdjust="spacing" textLength="134" x="25" y="909.0752">[Forma de pago inv&#225;lida]</text><polygon fill="#181818" points="87.5,930.8438,77.5,934.8438,87.5,938.8438,83.5,934.8438" style="stroke:#181818;stroke-width:1.0;"/><line style="stroke:#181818;stroke-width:1.0;stroke-dasharray:2.0,2.0;" x1="81.5" x2="410.5" y1="934.8438" y2="934.8438"/><text fill="#000000" font-family="sans-serif" font-size="13" lengthAdjust="spacing" textLength="228" x="93.5" y="929.9873">Mostrar_error("Forma de pago inv&#225;lida")</text><rect fill="#EEEEEE" height="3" style="stroke:#EEEEEE;stroke-width:1.0;" width="1159.5" x="0" y="971.0195"/><line style="stroke:#000000;stroke-width:1.0;" x1="0" x2="1159.5" y1="971.0195" y2="971.0195"/><line style="stroke:#000000;stroke-width:1.0;" x1="0" x2="1159.5" y1="974.0195" y2="974.0195"/><rect fill="#EEEEEE" height="24.3516" style="stroke:#000000;stroke-width:2.0;" width="207" x="476.25" y="959.8438"/><text fill="#000000" font-family="sans-serif" font-size="13" font-weight="bold" lengthAdjust="spacing" textLength="189" x="482.25" y="977.3389">Selecci&#243;n de &#205;tem de Compra</text><polygon fill="#181818" points="399.5,1012.5469,409.5,1016.5469,399.5,1020.5469,403.5,1016.5469" style="stroke:#181818;stroke-width:1.0;"/><line style="stroke:#181818;stroke-width:1.0;" x1="76.5" x2="405.5" y1="1016.5469" y2="1016.5469"/><text fill="#000000" font-family="sans-serif" font-size="13" lengthAdjust="spacing" textLength="108" x="83.5" y="1011.6904">Seleccionar_item()</text><polygon fill="#181818" points="592.5,1042.8984,602.5,1046.8984,592.5,1050.8984,596.5,1046.8984" style="stroke:#181818;stroke-width:1.0;"/><line style="stroke:#181818;stroke-width:1.0;" x1="421.5" x2="598.5" y1="1046.8984" y2="1046.8984"/><text fill="#000000" font-family="sans-serif" font-size="13" lengthAdjust="spacing" textLength="95" x="428.5" y="1042.042">Consultar_item()</text><polygon fill="#181818" points="432.5,1073.25,422.5,1077.25,432.5,1081.25,428.5,1077.25" style="stroke:#181818;stroke-width:1.0;"/><line style="stroke:#181818;stroke-width:1.0;stroke-dasharray:2.0,2.0;" x1="426.5" x2="608.5" y1="1077.25" y2="1077.25"/><text fill="#000000" font-family="sans-serif" font-size="13" lengthAdjust="spacing" textLength="87" x="438.5" y="1072.3936">Devolver_item()</text><polygon fill="#181818" points="87.5,1103.6016,77.5,1107.6016,87.5,1111.6016,83.5,1107.6016" style="stroke:#181818;stroke-width:1.0;"/><line style="stroke:#181818;stroke-width:1.0;stroke-dasharray:2.0,2.0;" x1="81.5" x2="415.5" y1="1107.6016" y2="1107.6016"/><text fill="#000000" font-family="sans-serif" font-size="13" lengthAdjust="spacing" textLength="84" x="93.5" y="1102.7451">Mostrar_item()</text><rect fill="#EEEEEE" height="3" style="stroke:#EEEEEE;stroke-width:1.0;" width="1159.5" x="0" y="1136.7773"/><line style="stroke:#000000;stroke-width:1.0;" x1="0" x2="1159.5" y1="1136.7773" y2="1136.7773"/><line style="stroke:#000000;stroke-width:1.0;" x1="0" x2="1159.5" y1="1139.7773" y2="1139.7773"/><rect fill="#EEEEEE" height="24.3516" style="stroke:#000000;stroke-width:2.0;" width="157" x="501.25" y="1125.6016"/><text fill="#000000" font-family="sans-serif" font-size="13" font-weight="bold" lengthAdjust="spacing" textLength="139" x="507.25" y="1143.0967">Registro de Productos</text><path d="M10,1166.9531 L83,1166.9531 L83,1175.3047 L73,1185.3047 L10,1185.3047 L10,1166.9531 " fill="#EEEEEE" style="stroke:#000000;stroke-width:1.5;"/><rect fill="none" height="412.6641" style="stroke:#000000;stroke-width:1.5;" width="997.5" x="10" y="1166.9531"/><text fill="#000000" font-family="sans-serif" font-size="13" font-weight="bold" lengthAdjust="spacing" textLength="28" x="25" y="1181.4482">loop</text><text fill="#000000" font-family="sans-serif" font-size="11" font-weight="bold" lengthAdjust="spacing" textLength="114" x="98" y="1180.3721">[hasta datos v&#225;lidos]</text><polygon fill="#181818" points="404.5,1203.6563,414.5,1207.6563,404.5,1211.6563,408.5,1207.6563" style="stroke:#181818;stroke-width:1.0;"/><line style="stroke:#181818;stroke-width:1.0;" x1="81.5" x2="410.5" y1="1207.6563" y2="1207.6563"/><text fill="#000000" font-family="sans-serif" font-size="13" lengthAdjust="spacing" textLength="316" x="88.5" y="1202.7998">Ingresar_datos_producto(cantidad, precio, descripci&#243;n)</text><polygon fill="#181818" points="592.5,1234.0078,602.5,1238.0078,592.5,1242.0078,596.5,1238.0078" style="stroke:#181818;stroke-width:1.0;"/><line style="stroke:#181818;stroke-width:1.0;" x1="421.5" x2="598.5" y1="1238.0078" y2="1238.0078"/><text fill="#000000" font-family="sans-serif" font-size="13" lengthAdjust="spacing" textLength="144" x="428.5" y="1233.1514">Validar_datos_producto()</text><polygon fill="#181818" points="432.5,1264.3594,422.5,1268.3594,432.5,1272.3594,428.5,1268.3594" style="stroke:#181818;stroke-width:1.0;"/><line style="stroke:#181818;stroke-width:1.0;stroke-dasharray:2.0,2.0;" x1="426.5" x2="608.5" y1="1268.3594" y2="1268.3594"/><text fill="#000000" font-family="sans-serif" font-size="13" lengthAdjust="spacing" textLength="121" x="438.5" y="1263.5029">Resultado_validaci&#243;n</text><path d="M20,1283.3594 L81,1283.3594 L81,1291.7109 L71,1301.7109 L20,1301.7109 L20,1283.3594 " fill="#EEEEEE" style="stroke:#000000;stroke-width:1.5;"/><rect fill="none" height="289.2578" style="stroke:#000000;stroke-width:1.5;" width="977.5" x="20" y="1283.3594"/><text fill="#000000" font-family="sans-serif" font-size="13" font-weight="bold" lengthAdjust="spacing" textLength="16" x="35" y="1297.8545">alt</text><text fill="#000000" font-family="sans-serif" font-size="11" font-weight="bold" lengthAdjust="spacing" textLength="81" x="96" y="1296.7783">[Datos v&#225;lidos]</text><polygon fill="#181818" points="904.5,1320.0625,914.5,1324.0625,904.5,1328.0625,908.5,1324.0625" style="stroke:#181818;stroke-width:1.0;"/><line style="stroke:#181818;stroke-width:1.0;" x1="421.5" x2="910.5" y1="1324.0625" y2="1324.0625"/><text fill="#000000" font-family="sans-serif" font-size="13" lengthAdjust="spacing" textLength="128" x="428.5" y="1319.2061">Crear(datos_producto)</text><rect fill="#E2E2F0" height="31.6094" rx="2.5" ry="2.5" style="stroke:#181818;stroke-width:0.5;" width="71" x="916.5" y="1301.7109"/><text fill="#000000" font-family="sans-serif" font-size="14" lengthAdjust="spacing" textLength="57" x="923.5" y="1323.2441">Producto</text><polygon fill="#181818" points="701.5,1362.6719,711.5,1366.6719,701.5,1370.6719,705.5,1366.6719" style="stroke:#181818;stroke-width:1.0;"/><line style="stroke:#181818;stroke-width:1.0;" x1="421.5" x2="707.5" y1="1366.6719" y2="1366.6719"/><text fill="#000000" font-family="sans-serif" font-size="13" lengthAdjust="spacing" textLength="213" x="428.5" y="1361.8154">Guardar_producto_compra(Producto)</text><polygon fill="#181818" points="432.5,1393.0234,422.5,1397.0234,432.5,1401.0234,428.5,1397.0234" style="stroke:#181818;stroke-width:1.0;"/><line style="stroke:#181818;stroke-width:1.0;stroke-dasharray:2.0,2.0;" x1="426.5" x2="712.5" y1="1397.0234" y2="1397.0234"/><text fill="#000000" font-family="sans-serif" font-size="13" lengthAdjust="spacing" textLength="123" x="438.5" y="1392.167">Confirmar_guardado()</text><polygon fill="#181818" points="701.5,1423.375,711.5,1427.375,701.5,1431.375,705.5,1427.375" style="stroke:#181818;stroke-width:1.0;"/><line style="stroke:#181818;stroke-width:1.0;" x1="421.5" x2="707.5" y1="1427.375" y2="1427.375"/><text fill="#000000" font-family="sans-serif" font-size="13" lengthAdjust="spacing" textLength="157" x="428.5" y="1422.5186">Actualizar_stock(Producto)</text><polygon fill="#181818" points="432.5,1453.7266,422.5,1457.7266,432.5,1461.7266,428.5,1457.7266" style="stroke:#181818;stroke-width:1.0;"/><line style="stroke:#181818;stroke-width:1.0;stroke-dasharray:2.0,2.0;" x1="426.5" x2="717.5" y1="1457.7266" y2="1457.7266"/><text fill="#000000" font-family="sans-serif" font-size="13" lengthAdjust="spacing" textLength="146" x="438.5" y="1452.8701">Confirmar_actualizacion()</text><polygon fill="#181818" points="92.5,1484.0781,82.5,1488.0781,92.5,1492.0781,88.5,1488.0781" style="stroke:#181818;stroke-width:1.0;"/><line style="stroke:#181818;stroke-width:1.0;stroke-dasharray:2.0,2.0;" x1="86.5" x2="410.5" y1="1488.0781" y2="1488.0781"/><text fill="#000000" font-family="sans-serif" font-size="13" lengthAdjust="spacing" textLength="255" x="98.5" y="1483.2217">Mostrar_confirmacion("Producto registrado")</text><polygon fill="#181818" points="940,1514.4297,950,1518.4297,940,1522.4297,944,1518.4297" style="stroke:#181818;stroke-width:1.0;"/><line style="stroke:#181818;stroke-width:1.0;" x1="421.5" x2="946" y1="1518.4297" y2="1518.4297"/><text fill="#000000" font-family="sans-serif" font-size="13" lengthAdjust="spacing" textLength="45" x="428.5" y="1513.5732">Destruir</text><line style="stroke:#A80036;stroke-width:2.0;" x1="943" x2="961" y1="1509.4297" y2="1527.4297"/><line style="stroke:#A80036;stroke-width:2.0;" x1="943" x2="961" y1="1527.4297" y2="1509.4297"/><line style="stroke:#000000;stroke-width:1.0;stroke-dasharray:2.0,2.0;" x1="20" x2="997.5" y1="1527.4297" y2="1527.4297"/><text fill="#000000" font-family="sans-serif" font-size="11" font-weight="bold" lengthAdjust="spacing" textLength="91" x="25" y="1538.8486">[Datos inv&#225;lidos]</text><polygon fill="#181818" points="92.5,1560.6172,82.5,1564.6172,92.5,1568.6172,88.5,1564.6172" style="stroke:#181818;stroke-width:1.0;"/><line style="stroke:#181818;stroke-width:1.0;stroke-dasharray:2.0,2.0;" x1="86.5" x2="410.5" y1="1564.6172" y2="1564.6172"/><text fill="#000000" font-family="sans-serif" font-size="13" lengthAdjust="spacing" textLength="257" x="98.5" y="1559.7607">Mostrar_error("Datos del producto inv&#225;lidos")</text><rect fill="#EEEEEE" height="3" style="stroke:#EEEEEE;stroke-width:1.0;" width="1159.5" x="0" y="1607.793"/><line style="stroke:#000000;stroke-width:1.0;" x1="0" x2="1159.5" y1="1607.793" y2="1607.793"/><line style="stroke:#000000;stroke-width:1.0;" x1="0" x2="1159.5" y1="1610.793" y2="1610.793"/><rect fill="#EEEEEE" height="24.3516" style="stroke:#000000;stroke-width:2.0;" width="240" x="459.75" y="1596.6172"/><text fill="#000000" font-family="sans-serif" font-size="13" font-weight="bold" lengthAdjust="spacing" textLength="222" x="465.75" y="1614.1123">Listado y Modificaci&#243;n de Compras</text><polygon fill="#181818" points="399.5,1649.3203,409.5,1653.3203,399.5,1657.3203,403.5,1653.3203" style="stroke:#181818;stroke-width:1.0;"/><line style="stroke:#181818;stroke-width:1.0;" x1="76.5" x2="405.5" y1="1653.3203" y2="1653.3203"/><text fill="#000000" font-family="sans-serif" font-size="13" lengthAdjust="spacing" textLength="157" x="83.5" y="1648.4639">Solicitar_listado_compras()</text><polygon fill="#181818" points="592.5,1679.6719,602.5,1683.6719,592.5,1687.6719,596.5,1683.6719" style="stroke:#181818;stroke-width:1.0;"/><line style="stroke:#181818;stroke-width:1.0;" x1="421.5" x2="598.5" y1="1683.6719" y2="1683.6719"/><text fill="#000000" font-family="sans-serif" font-size="13" lengthAdjust="spacing" textLength="99" x="428.5" y="1678.8154">Obtener_listado()</text><polygon fill="#181818" points="432.5,1710.0234,422.5,1714.0234,432.5,1718.0234,428.5,1714.0234" style="stroke:#181818;stroke-width:1.0;"/><line style="stroke:#181818;stroke-width:1.0;stroke-dasharray:2.0,2.0;" x1="426.5" x2="608.5" y1="1714.0234" y2="1714.0234"/><text fill="#000000" font-family="sans-serif" font-size="13" lengthAdjust="spacing" textLength="100" x="438.5" y="1709.167">Devolver_listado()</text><polygon fill="#181818" points="87.5,1740.375,77.5,1744.375,87.5,1748.375,83.5,1744.375" style="stroke:#181818;stroke-width:1.0;"/><line style="stroke:#181818;stroke-width:1.0;stroke-dasharray:2.0,2.0;" x1="81.5" x2="415.5" y1="1744.375" y2="1744.375"/><text fill="#000000" font-family="sans-serif" font-size="13" lengthAdjust="spacing" textLength="97" x="93.5" y="1739.5186">Mostrar_listado()</text><path d="M10,1759.375 L83,1759.375 L83,1767.7266 L73,1777.7266 L10,1777.7266 L10,1759.375 " fill="#EEEEEE" style="stroke:#000000;stroke-width:1.5;"/><rect fill="none" height="351.9609" style="stroke:#000000;stroke-width:1.5;" width="1139.5" x="10" y="1759.375"/><text fill="#000000" font-family="sans-serif" font-size="13" font-weight="bold" lengthAdjust="spacing" textLength="28" x="25" y="1773.8701">loop</text><text fill="#000000" font-family="sans-serif" font-size="11" font-weight="bold" lengthAdjust="spacing" textLength="114" x="98" y="1772.7939">[hasta datos v&#225;lidos]</text><polygon fill="#181818" points="399.5,1796.0781,409.5,1800.0781,399.5,1804.0781,403.5,1800.0781" style="stroke:#181818;stroke-width:1.0;"/><line style="stroke:#181818;stroke-width:1.0;" x1="81.5" x2="405.5" y1="1800.0781" y2="1800.0781"/><text fill="#000000" font-family="sans-serif" font-size="13" lengthAdjust="spacing" textLength="149" x="88.5" y="1795.2217">Modificar_datos_compra()</text><polygon fill="#181818" points="592.5,1826.4297,602.5,1830.4297,592.5,1834.4297,596.5,1830.4297" style="stroke:#181818;stroke-width:1.0;"/><line style="stroke:#181818;stroke-width:1.0;" x1="421.5" x2="598.5" y1="1830.4297" y2="1830.4297"/><text fill="#000000" font-family="sans-serif" font-size="13" lengthAdjust="spacing" textLength="127" x="428.5" y="1825.5732">Validar_modificacion()</text><polygon fill="#181818" points="432.5,1856.7813,422.5,1860.7813,432.5,1864.7813,428.5,1860.7813" style="stroke:#181818;stroke-width:1.0;"/><line style="stroke:#181818;stroke-width:1.0;stroke-dasharray:2.0,2.0;" x1="426.5" x2="608.5" y1="1860.7813" y2="1860.7813"/><text fill="#000000" font-family="sans-serif" font-size="13" lengthAdjust="spacing" textLength="121" x="438.5" y="1855.9248">Resultado_validaci&#243;n</text><path d="M20,1875.7813 L81,1875.7813 L81,1884.1328 L71,1894.1328 L20,1894.1328 L20,1875.7813 " fill="#EEEEEE" style="stroke:#000000;stroke-width:1.5;"/><rect fill="none" height="228.5547" style="stroke:#000000;stroke-width:1.5;" width="1119.5" x="20" y="1875.7813"/><text fill="#000000" font-family="sans-serif" font-size="13" font-weight="bold" lengthAdjust="spacing" textLength="16" x="35" y="1890.2764">alt</text><text fill="#000000" font-family="sans-serif" font-size="11" font-weight="bold" lengthAdjust="spacing" textLength="81" x="96" y="1889.2002">[Datos v&#225;lidos]</text><polygon fill="#181818" points="985.5,1912.4844,995.5,1916.4844,985.5,1920.4844,989.5,1916.4844" style="stroke:#181818;stroke-width:1.0;"/><line style="stroke:#181818;stroke-width:1.0;" x1="421.5" x2="991.5" y1="1916.4844" y2="1916.4844"/><text fill="#000000" font-family="sans-serif" font-size="13" lengthAdjust="spacing" textLength="147" x="428.5" y="1911.6279">Crear(datos_modificados)</text><rect fill="#E2E2F0" height="31.6094" rx="2.5" ry="2.5" style="stroke:#181818;stroke-width:0.5;" width="132" x="997.5" y="1894.1328"/><text fill="#000000" font-family="sans-serif" font-size="14" lengthAdjust="spacing" textLength="118" x="1004.5" y="1915.666">CompraModificada</text><polygon fill="#181818" points="701.5,1955.0938,711.5,1959.0938,701.5,1963.0938,705.5,1959.0938" style="stroke:#181818;stroke-width:1.0;"/><line style="stroke:#181818;stroke-width:1.0;" x1="421.5" x2="707.5" y1="1959.0938" y2="1959.0938"/><text fill="#000000" font-family="sans-serif" font-size="13" lengthAdjust="spacing" textLength="273" x="428.5" y="1954.2373">Actualizar_registro_compra(CompraModificada)</text><polygon fill="#181818" points="432.5,1985.4453,422.5,1989.4453,432.5,1993.4453,428.5,1989.4453" style="stroke:#181818;stroke-width:1.0;"/><line style="stroke:#181818;stroke-width:1.0;stroke-dasharray:2.0,2.0;" x1="426.5" x2="717.5" y1="1989.4453" y2="1989.4453"/><text fill="#000000" font-family="sans-serif" font-size="13" lengthAdjust="spacing" textLength="146" x="438.5" y="1984.5889">Confirmar_actualizacion()</text><polygon fill="#181818" points="92.5,2015.7969,82.5,2019.7969,92.5,2023.7969,88.5,2019.7969" style="stroke:#181818;stroke-width:1.0;"/><line style="stroke:#181818;stroke-width:1.0;stroke-dasharray:2.0,2.0;" x1="86.5" x2="410.5" y1="2019.7969" y2="2019.7969"/><text fill="#000000" font-family="sans-serif" font-size="13" lengthAdjust="spacing" textLength="260" x="98.5" y="2014.9404">Mostrar_confirmacion("Modificaci&#243;n exitosa")</text><polygon fill="#181818" points="1051.5,2046.1484,1061.5,2050.1484,1051.5,2054.1484,1055.5,2050.1484" style="stroke:#181818;stroke-width:1.0;"/><line style="stroke:#181818;stroke-width:1.0;" x1="421.5" x2="1057.5" y1="2050.1484" y2="2050.1484"/><text fill="#000000" font-family="sans-serif" font-size="13" lengthAdjust="spacing" textLength="45" x="428.5" y="2045.292">Destruir</text><line style="stroke:#A80036;stroke-width:2.0;" x1="1054.5" x2="1072.5" y1="2041.1484" y2="2059.1484"/><line style="stroke:#A80036;stroke-width:2.0;" x1="1054.5" x2="1072.5" y1="2059.1484" y2="2041.1484"/><line style="stroke:#000000;stroke-width:1.0;stroke-dasharray:2.0,2.0;" x1="20" x2="1139.5" y1="2059.1484" y2="2059.1484"/><text fill="#000000" font-family="sans-serif" font-size="11" font-weight="bold" lengthAdjust="spacing" textLength="91" x="25" y="2070.5674">[Datos inv&#225;lidos]</text><polygon fill="#181818" points="92.5,2092.3359,82.5,2096.3359,92.5,2100.3359,88.5,2096.3359" style="stroke:#181818;stroke-width:1.0;"/><line style="stroke:#181818;stroke-width:1.0;stroke-dasharray:2.0,2.0;" x1="86.5" x2="410.5" y1="2096.3359" y2="2096.3359"/><text fill="#000000" font-family="sans-serif" font-size="13" lengthAdjust="spacing" textLength="276" x="98.5" y="2091.4795">Mostrar_error("Datos de modificaci&#243;n inv&#225;lidos")</text><rect fill="#EEEEEE" height="3" style="stroke:#EEEEEE;stroke-width:1.0;" width="1159.5" x="0" y="2139.5117"/><line style="stroke:#000000;stroke-width:1.0;" x1="0" x2="1159.5" y1="2139.5117" y2="2139.5117"/><line style="stroke:#000000;stroke-width:1.0;" x1="0" x2="1159.5" y1="2142.5117" y2="2142.5117"/><rect fill="#EEEEEE" height="24.3516" style="stroke:#000000;stroke-width:2.0;" width="147" x="506.25" y="2128.3359"/><text fill="#000000" font-family="sans-serif" font-size="13" font-weight="bold" lengthAdjust="spacing" textLength="129" x="512.25" y="2145.8311">Filtrado de Compras</text><path d="M20,2169.6875 L93,2169.6875 L93,2178.0391 L83,2188.0391 L20,2188.0391 L20,2169.6875 " fill="#EEEEEE" style="stroke:#000000;stroke-width:1.5;"/><rect fill="none" height="139.7578" style="stroke:#000000;stroke-width:1.5;" width="635" x="20" y="2169.6875"/><text fill="#000000" font-family="sans-serif" font-size="13" font-weight="bold" lengthAdjust="spacing" textLength="28" x="35" y="2184.1826">loop</text><text fill="#000000" font-family="sans-serif" font-size="11" font-weight="bold" lengthAdjust="spacing" textLength="173" x="108" y="2183.1064">[hasta datos de filtrado v&#225;lidos]</text><polygon fill="#181818" points="399.5,2206.3906,409.5,2210.3906,399.5,2214.3906,403.5,2210.3906" style="stroke:#181818;stroke-width:1.0;"/><line style="stroke:#181818;stroke-width:1.0;" x1="76.5" x2="405.5" y1="2210.3906" y2="2210.3906"/><text fill="#000000" font-family="sans-serif" font-size="13" lengthAdjust="spacing" textLength="248" x="83.5" y="2205.5342">Aplicar_filtro(fecha, proveedor, forma_pago)</text><polygon fill="#181818" points="592.5,2236.7422,602.5,2240.7422,592.5,2244.7422,596.5,2240.7422" style="stroke:#181818;stroke-width:1.0;"/><line style="stroke:#181818;stroke-width:1.0;" x1="421.5" x2="598.5" y1="2240.7422" y2="2240.7422"/><text fill="#000000" font-family="sans-serif" font-size="13" lengthAdjust="spacing" textLength="144" x="428.5" y="2235.8857">Obtener_listado_filtrado()</text><polygon fill="#181818" points="432.5,2267.0938,422.5,2271.0938,432.5,2275.0938,428.5,2271.0938" style="stroke:#181818;stroke-width:1.0;"/><line style="stroke:#181818;stroke-width:1.0;stroke-dasharray:2.0,2.0;" x1="426.5" x2="608.5" y1="2271.0938" y2="2271.0938"/><text fill="#000000" font-family="sans-serif" font-size="13" lengthAdjust="spacing" textLength="145" x="438.5" y="2266.2373">Devolver_listado_filtrado()</text><polygon fill="#181818" points="87.5,2297.4453,77.5,2301.4453,87.5,2305.4453,83.5,2301.4453" style="stroke:#181818;stroke-width:1.0;"/><line style="stroke:#181818;stroke-width:1.0;stroke-dasharray:2.0,2.0;" x1="81.5" x2="415.5" y1="2301.4453" y2="2301.4453"/><text fill="#000000" font-family="sans-serif" font-size="13" lengthAdjust="spacing" textLength="142" x="93.5" y="2296.5889">Mostrar_listado_filtrado()</text><rect fill="#EEEEEE" height="3" style="stroke:#EEEEEE;stroke-width:1.0;" width="1159.5" x="0" y="2337.6211"/><line style="stroke:#000000;stroke-width:1.0;" x1="0" x2="1159.5" y1="2337.6211" y2="2337.6211"/><line style="stroke:#000000;stroke-width:1.0;" x1="0" x2="1159.5" y1="2340.6211" y2="2340.6211"/><rect fill="#EEEEEE" height="24.3516" style="stroke:#000000;stroke-width:2.0;" width="107" x="526.25" y="2326.4453"/><text fill="#000000" font-family="sans-serif" font-size="13" font-weight="bold" lengthAdjust="spacing" textLength="89" x="532.25" y="2343.9404">Postcondici&#243;n</text><path d="M382,2365.7969 L382,2407.7969 L752,2407.7969 L752,2375.7969 L742,2365.7969 L382,2365.7969 " fill="#FEFFDD" style="stroke:#181818;stroke-width:0.5;"/><path d="M742,2365.7969 L742,2375.7969 L752,2375.7969 L742,2365.7969 " fill="#FEFFDD" style="stroke:#181818;stroke-width:0.5;"/><text fill="#000000" font-family="sans-serif" font-size="13" lengthAdjust="spacing" textLength="298" x="413.5" y="2384.292">Compra registrada exitosamente, stock actualizado</text><text fill="#000000" font-family="sans-serif" font-size="13" lengthAdjust="spacing" textLength="202" x="413.5" y="2400.6436">y registro disponible para consulta.</text><!--SRC=[jLZHRXih47tVhw1-SYJtVe2bL4eTzQfIerfDUryj0jYbPPSLYwsswY_q8_eDznFoOvrX5xomRBnEKhya1kOmCvmv3BRIAa6k9TqPMbB21RaLR2yg9kcIV10xsLX33LdfiZQqA2Ypsf0hNihApN1jYfeQAvciQMN9BOoAaaPZinMrzx-LtkaPeGs1R_7qpLvPgU- -2DikkFdqxcDHN5xwxJLwjJRw80HiHoul2wLrJJxJneB3rEg6C6sC0DUQWi07d9G7QaNY9qv58-JbA-_mahojTaOqr6mSugRs-yrNdzv-NC0EbSNWB-8TVBmusFsFg13ZahpUDmpmOgJ47fE10_2NlEox4-BTm5d0tkWm-KcglLBEW8i8eqLLjfUdIfEZgPkFd8JDecGioOrsPxqfHTNGBs8-Yx1CnmMkPnS1hUU5pqIO6q_r5MHw5sN6vVm8cqqlVfWHE1mS6uRrwZYv92jOFWx-80gIS4d-tLF38q-3KGRG4TUFufVuI5UwsafJ0jpEmN8zpsOoWia5HbwyM99h0QdTIvD3Y2CJgkdNp-D8aLP5wxceU372WsGuBaMqIolyZJQj0AtfJcELZzYEy-fMAC6Or1NukqMq3HUR6j30su5_QRN-HvNamJ2rmXeRrEW7qO1qWHkRWpDcylx_gaWh4wion8Quv01g2CkBFgDXF1KH7FCSTbwXSQ8VERkOkhruraFxmBKpw9gZwWG6iGuF3sW-YpCIn8LsufAaOSZuFjin1uxaCQYi-ecUuA4m1fWz6q41pv2s6QgFqXmftf4Ic86Gzx_00lzfBzGdqrp2q1Hsms4whWujiio-5WUj3YAiJZWz8PT3mqdPIgvyliTBFNlbjwVItVXdt-qEUCwW_u2JvGjIG_iWzGAsRPYHjJklYrFDn9Y49Biyq3ASxWFo6fFf07m3S3tCJdnpEgT6xXSt5zsR8Opy1JeADhW_tKeG0QJzV3qE-fHBTB3_5RDxIDiFMDvOpRvcDdve2-hDdMQTSLbFLK7lJhwxofpDbAl_U2PE55j2U1dhKMAw8hOGN2ZY3xA7DtkULk0TZ62F-nqsvt8h6GsYsMfbypYnr0eU6YXygjsWes0pHJNVtrbHYM0wNJQF1kShPzRsj7W-II1zohrsTMLwKW4dlOEyB9RXN4CnFQF-JHJ0bai-NavpnPQkYGNHXy6pZuef-0Djwge_o6CAyXIP_EiQ5fUh-2OXIJIlOcbS9zKicytdLZLIHX4ykxAzaQfzliTIDYXOcDxwfL5OZ_ezuwfMhg0Tf9vl1VjCiS_f7d0BSdmOdF6RHgA86-_mv7fE9J95o7GrqpNp0R2pJcmDi41oBbj6m65L6XP3wem7MhHLqxNnn_UBBu1IL5OiYEiwIAX1U7D_zuk13xAfTINl53ur08LrJVe_w0Z1BOi_]--></g></svg>